<?xml version="1.0" encoding="UTF-8"?>
<svg width="79px" height="80px" viewBox="0 0 79 80" version="1.1" xmlns="http://www.w3.org/2000/svg" xmlns:xlink="http://www.w3.org/1999/xlink">
    <!-- Generator: Sketch 50.2 (55047) - http://www.bohemiancoding.com/sketch -->
    <title>skip-track-button</title>
    <desc>Created with Sketch.</desc>
    <defs></defs>
    <g id="Page-1" stroke="none" stroke-width="1" fill="none" fill-rule="evenodd">
        <g id="Home" transform="translate(-141.000000, -148.000000)" fill="#FFFFFF" fill-rule="nonzero">
            <g id="Group" transform="translate(141.000000, 147.000000)">
                <g id="logo">
                    <g id="skip-track-button">
                        <g transform="translate(39.500000, 40.500000) rotate(-90.000000) translate(-39.500000, -40.500000) translate(-1.000000, 1.000000)">
                            <path d="M0.00287525482,65.6819622 L0.00287525482,14.1816562 C0.00287525482,10.2702585 0.437281065,2.2841457 4.78998938,0.545656404 C9.14269769,-1.19283289 16.324768,4.18574928 20.1333878,6.57617206 C28.6166862,12.122945 35.0095653,16.2366599 39.3120248,18.9173168 C41.6407195,20.3682151 44.1221282,21.4416092 45.0307617,20.2563477 C45.4584824,19.69841 45.4584824,17.890824 45.0307617,14.8335897 C45.0307617,12.2655849 44.3460153,7.73535156 46.0668945,5.77880859 C48.0381244,3.53763111 50.0077068,4.21337891 53.2382813,4.21337891 L65.6928711,4.21337891 C68.7913855,4.21337891 70.5,4.21337891 76.2202148,4.21337891 C76.9863901,4.21337891 80.4269177,6.82883461 79.9805822,12.7167969 C79.9805822,12.7167969 79.9805822,30.1545408 79.9805822,65.0300287 C79.9805822,67.2906315 80.265625,73.1909486 78.8369141,74.8086244 C78.084084,75.6610256 72.6134452,75.7110745 67.5317383,75.7958984 C62.9694487,75.8720523 58.8019168,76.0384047 57.2802734,75.7958984 L53.2382813,75.7958984 C49.7429678,75.7958984 49.4390735,76.6620988 47.2163086,74.8086244 C45.1142266,73.0557826 45.0307617,70.6307255 45.0307617,67.9902344 C45.0174896,65.6384813 45.0174896,64.2600633 45.0307617,63.8549805 C45.0827327,62.2687551 45.6527497,58.031048 45.0307617,57.6865234 C43.7403889,56.9717746 38.9506607,60.7883438 37.0370877,62.0373082 C34.075996,63.9699746 28.4414293,67.6475835 20.1333878,73.0701351 C19.5382738,73.5455169 14.7516944,76.7678252 10.6889028,78.3704435 C8.82330155,79.106353 4.44914803,79.1834736 2.39297053,76.640872 C-0.0286688643,73.6463522 0.00287525482,67.748426 0.00287525482,65.6819622 Z M9.09089938,5.94000244 C8.16073023,5.94000244 7.23056108,6.19523768 6.9205047,6.19523768 C6.30039193,6.45047293 4.12999725,7.4714139 4.12999725,9.76829233 L4.12999725,70.2561798 C4.12999725,72.553297 6.30039193,73.5739992 6.9205047,73.8292344 C7.54061746,74.0844697 9.71101214,74.8501754 11.8811168,73.318764 L12.1914632,73.3185252 C27.7686928,63.91985 36.259722,58.8266957 37.6645508,58.0390625 C38.2008639,57.7383724 38.7108915,57.4597395 39.1958687,57.2019219 C46.9359526,53.0872332 48.2954102,54.2744424 48.2954102,55.715332 L48.2954102,71.7490234 C48.2954102,73.7909054 54.6671573,73.3185252 57.1473183,73.3185252 L72.0294446,73.3185252 C74.5098957,73.3185252 76.6800003,71.5318785 76.6800003,69.4902353 L76.6800003,10.5339981 C76.6800003,8.49211611 74.5096056,6.70570817 72.0294446,6.70570817 L57.1473183,6.70570817 C54.6668673,6.70570817 48.2954102,6.39048572 48.2954102,8.43212891 L48.2954102,21.5898438 C48.480164,22.9963749 49.2636719,27.4794922 39.1958687,22.4594727 C29.1280655,17.4394531 23.13414,12.9403457 21.9316406,12.1484375 L12.1914632,6.70570817 C11.2612941,6.19523768 10.0210685,5.94000244 9.09089938,5.94000244 Z" id="Shape"></path>
                        </g>
                    </g>
                </g>
            </g>
        </g>
    </g>
</svg>