<?xml version="1.0" encoding="UTF-8"?>
<svg width="64px" height="39px" viewBox="0 0 64 39" version="1.1" xmlns="http://www.w3.org/2000/svg" xmlns:xlink="http://www.w3.org/1999/xlink">
    <!-- Generator: Sketch 50.2 (55047) - http://www.bohemiancoding.com/sketch -->
    <title>Group 4</title>
    <desc>Created with Sketch.</desc>
    <defs></defs>
    <g id="Page-1" stroke="none" stroke-width="1" fill="none" fill-rule="evenodd">
        <g id="Screen_tutorial" transform="translate(-110.000000, -101.000000)">
            <g id="image-cnt" transform="translate(91.000000, 100.000000)">
                <g id="Group-4" transform="translate(53.442059, 21.834877) rotate(-14.000000) translate(-53.442059, -21.834877) translate(18.942059, 8.334877)">
                    <g id="Group-2-Copy-3" transform="translate(16.000000, 0.000000)" fill="#8DC4FF">
                        <path d="M52.0661039,0.989383879 L21.1296193,24.3016971 C16.4983401,27.7916163 9.91480795,26.8663612 6.42488873,22.235082 L2.2517353,16.6971204 C-0.640984588,12.8583514 -0.500303178,7.67830666 2.26993775,4.03046966 C6.08385688,4.45027403 10.220199,4.757178 14.7156361,4.93017495 C21.6102184,5.1954977 34.0603743,3.88190068 52.0661039,0.989383879 Z" id="Combined-Shape-Copy"></path>
                    </g>
                    <g id="Group-2-Copy" fill="#1E89FB">
                        <path d="M52.0661039,0.989383879 L21.1296193,24.3016971 C16.4983401,27.7916163 9.91480795,26.8663612 6.42488873,22.235082 L2.2517353,16.6971204 C-0.640984588,12.8583514 -0.500303178,7.67830666 2.26993775,4.03046966 C6.08385688,4.45027403 10.220199,4.757178 14.7156361,4.93017495 C21.6102184,5.1954977 34.0603743,3.88190068 52.0661039,0.989383879 Z" id="Combined-Shape-Copy"></path>
                    </g>
                </g>
            </g>
        </g>
    </g>
</svg>