<?xml version="1.0" encoding="UTF-8"?>
<svg width="64px" height="36px" viewBox="0 0 64 36" version="1.1" xmlns="http://www.w3.org/2000/svg" xmlns:xlink="http://www.w3.org/1999/xlink">
    <!-- Generator: Sketch 50.2 (55047) - http://www.bohemiancoding.com/sketch -->
    <title>Group 4 Copy</title>
    <desc>Created with Sketch.</desc>
    <defs></defs>
    <g id="Page-1" stroke="none" stroke-width="1" fill="none" fill-rule="evenodd">
        <g id="Screen_tutorial" transform="translate(-178.000000, -259.000000)">
            <g id="image-cnt" transform="translate(91.000000, 100.000000)">
                <g id="Group-4-Copy" transform="translate(120.488673, 176.936503) rotate(-16.000000) translate(-120.488673, -176.936503) translate(85.488673, 158.936503)">
                    <g id="Group-2-Copy" transform="translate(0.000000, 0.000000)" fill="#1E89FB">
                        <path d="M54.7457313,4.61326334 L23.7212807,27.9918638 C19.0900015,31.481783 12.5064693,30.5565279 9.0165501,25.9252487 L4.51152388,19.9468769 C1.71667746,16.2379905 1.7534382,11.2770553 4.25758429,7.65564423 C8.21415184,8.10834167 12.5182402,8.43809551 17.2110357,8.62102423 C24.1434119,8.89125352 36.6549771,7.55533322 54.7457313,4.61326334 Z" id="Combined-Shape-Copy" transform="translate(28.571164, 17.360027) rotate(10.000000) translate(-28.571164, -17.360027) "></path>
                    </g>
                    <g id="Group-2-Copy-3" transform="translate(16.551275, 8.077477)" fill="#8DC4FF">
                        <path d="M52.0661039,0.989383879 L21.1296193,24.3016971 C16.4983401,27.7916163 9.91480795,26.8663612 6.42488873,22.235082 L2.2517353,16.6971204 C-0.640984588,12.8583514 -0.500303178,7.67830666 2.26993775,4.03046966 C6.08385688,4.45027403 10.220199,4.757178 14.7156361,4.93017495 C21.6102184,5.1954977 34.0603743,3.88190068 52.0661039,0.989383879 Z" id="Combined-Shape-Copy"></path>
                    </g>
                </g>
            </g>
        </g>
    </g>
</svg>