<?xml version="1.0" encoding="UTF-8"?>
<svg width="67px" height="34px" viewBox="0 0 67 34" version="1.1" xmlns="http://www.w3.org/2000/svg" xmlns:xlink="http://www.w3.org/1999/xlink">
    <!-- Generator: Sketch 50.2 (55047) - http://www.bohemiancoding.com/sketch -->
    <title>Group 4 Copy</title>
    <desc>Created with Sketch.</desc>
    <defs></defs>
    <g id="Page-1" stroke="none" stroke-width="1" fill="none" fill-rule="evenodd">
        <g id="Screen_tutorial" transform="translate(-171.000000, -269.000000)">
            <g id="image-cnt" transform="translate(91.000000, 100.000000)">
                <g id="Group-4-Copy" transform="translate(115.043417, 186.499079) rotate(-8.000000) translate(-115.043417, -186.499079) translate(80.043417, 172.999079)">
                    <g id="Group-2-Copy-3" transform="translate(17.000000, 0.000000)" fill="#FFE5ED">
                        <path d="M52.0661039,0.989383879 L21.1296193,24.3016971 C16.4983401,27.7916163 9.91480795,26.8663612 6.42488873,22.235082 L2.2517353,16.6971204 C-0.640984588,12.8583514 -0.500303178,7.67830666 2.26993775,4.03046966 C6.08385688,4.45027403 10.220199,4.757178 14.7156361,4.93017495 C21.6102184,5.1954977 34.0603743,3.88190068 52.0661039,0.989383879 Z" id="Combined-Shape-Copy"></path>
                    </g>
                    <g id="Group-2-Copy" transform="translate(0.000000, 1.000000)" fill="#FEBFD2">
                        <path d="M52.8550081,0.0664578602 L21.8305575,23.4450583 C17.1992783,26.9349775 10.6157461,26.0097224 7.12582691,21.3784432 L2.62080069,15.4000715 C-0.174045727,11.691185 -0.13728499,6.73024981 2.3668611,3.10883875 C6.32342866,3.56153619 10.627517,3.89129002 15.3203125,4.07421875 C22.2526887,4.34444804 34.764254,3.00852774 52.8550081,0.0664578602 Z" id="Combined-Shape-Copy"></path>
                    </g>
                </g>
            </g>
        </g>
    </g>
</svg>