<?xml version="1.0" encoding="UTF-8"?>
<svg width="75px" height="84px" viewBox="0 0 75 84" version="1.1" xmlns="http://www.w3.org/2000/svg" xmlns:xlink="http://www.w3.org/1999/xlink">
    <!-- Generator: Sketch 48.2 (47327) - http://www.bohemiancoding.com/sketch -->
    <title>skip-track-button</title>
    <desc>Created with Sketch.</desc>
    <defs></defs>
    <g id="Home" stroke="none" stroke-width="1" fill="none" fill-rule="evenodd" transform="translate(-143.000000, -119.000000)">
        <g id="Group" transform="translate(143.000000, 119.000000)" fill="#FFFFFF" fill-rule="nonzero">
            <g id="skip-track-button" transform="translate(37.500000, 42.000000) rotate(-90.000000) translate(-37.500000, -42.000000) translate(-4.000000, 5.000000)">
                <path d="M12.6927395,73.7772905 C10.7186786,73.7772905 9.0268902,73.5520196 7.334838,72.8762071 C2.82296262,71.0740405 0.00287563443,67.6951888 0.00287563443,63.6405246 L0.00287563443,10.253867 C0.00287563443,6.19920277 2.82269882,2.82035107 7.334838,1.01818444 C11.8469772,-0.783982193 16.9226062,-0.108169707 20.8707279,2.36980941 L43.994386,17.4623228 L43.994386,10.9296794 C43.994386,5.29811945 49.6342962,0.792913608 56.6842499,0.792913608 L70.2201398,0.792913608 C77.2700935,0.792913608 82.9100037,5.29811945 82.9100037,10.9296794 L82.9100037,62.9647121 C82.9100037,68.5962721 77.2700935,73.101478 70.2201398,73.101478 L56.6842499,73.101478 C49.6342962,73.101478 43.994386,68.5962721 43.994386,62.9647121 L43.994386,56.206798 L20.8707279,71.2993113 C18.6146584,73.101478 15.7948352,73.7772905 12.6927395,73.7772905 Z M11.7486898,4.94000244 C10.8826218,4.94000244 10.0165539,5.17764854 9.72786453,5.17764854 C9.15048587,5.41529465 7.12966058,6.36587905 7.12966058,8.50447167 L7.12966058,64.8239302 C7.12966058,66.9627451 9.15048587,67.9131072 9.72786453,68.1507533 C10.3052432,68.3883994 12.3260685,69.1013377 14.3466237,67.6754611 L44.9463422,46.7634933 C46.1010995,45.8129089 48.1216547,45.8129089 49.5651014,46.2882011 C51.008548,46.7634933 52.1633053,48.1893699 52.1633053,49.6150243 L52.1633053,64.1107696 C52.1633053,66.0119384 54.1841306,67.6752388 56.4933752,67.6752388 L70.3499228,67.6752388 C72.6594374,67.6752388 74.6799927,66.0117161 74.6799927,64.1107696 L74.6799927,9.21740997 C74.6799927,7.31624116 72.6591674,5.65294075 70.3499228,5.65294075 L56.4933752,5.65294075 C54.1838606,5.65294075 52.1633053,7.31646346 52.1633053,9.21740997 L52.1633053,23.7131553 C52.1633053,25.1390319 51.2972373,26.3270401 49.5651014,27.0399784 C48.1216547,27.5152706 46.3897888,27.5152706 44.9463422,26.5646862 L14.6355831,5.65294075 C13.7695151,5.17764854 12.6147578,4.94000244 11.7486898,4.94000244 Z" id="Shape"></path>
            </g>
        </g>
    </g>
</svg>