<?xml version="1.0" encoding="UTF-8"?>
<svg width="83px" height="83px" viewBox="0 0 83 83" version="1.1" xmlns="http://www.w3.org/2000/svg" xmlns:xlink="http://www.w3.org/1999/xlink">
    <!-- Generator: Sketch 48.2 (47327) - http://www.bohemiancoding.com/sketch -->
    <title>skip-track-button</title>
    <desc>Created with Sketch.</desc>
    <defs></defs>
    <g id="Home" stroke="none" stroke-width="1" fill="none" fill-rule="evenodd" transform="translate(-139.000000, -117.000000)">
        <g id="Group" transform="translate(139.000000, 117.000000)" fill="#FFFFFF" fill-rule="nonzero">
            <g id="logo">
                <g id="skip-track-button">
                    <g transform="translate(41.500000, 41.500000) rotate(-90.000000) translate(-41.500000, -41.500000) ">
                        <path d="M0.00287563443,68.6405246 L0.00287563443,15.253867 C0.00287563443,11.1992028 0.453192847,2.92057483 4.96533203,1.1184082 C9.47747122,-0.683758427 16.9226062,4.89183029 20.8707279,7.36980941 C29.7067776,13.0556653 36.3338148,17.3200572 40.7518396,20.1629852 C42.8558907,21.5169083 43.1194548,21.0220527 43.7097168,20.4462891 C44.1424853,20.0241504 44.2373751,18.5186139 43.994386,15.9296794 C43.994386,12.9732509 43.4734974,9.2165335 45.9702148,7.36980941 C48.4669323,5.52308532 53.3353461,5.79291361 56.6842499,5.79291361 L70.2201398,5.79291361 C73.4321465,5.79291361 78.0439221,5.81900092 80.2705078,7.36980941 C82.9309997,9.2228319 82.9100037,12.8638964 82.9100037,15.9296794 L82.9100037,67.9647121 C82.9100037,70.3081163 83.2196781,73.6448599 81.5712891,75.3547363 C79.2583462,77.7539555 74.3364675,78.101478 70.2201398,78.101478 L56.6842499,78.101478 C53.0609102,78.101478 48.2743951,77.6752696 45.9702148,75.7539062 C43.7911378,73.9368614 43.994386,70.7019191 43.994386,67.9647121 C43.9806278,66.3164072 43.9806278,65.2822946 43.994386,64.8623744 C44.0482606,63.2180488 43.9685006,63.1466946 43.3237305,62.7895508 C41.9860939,62.0486221 40.3772394,63.567663 38.3935761,64.8623744 C35.3240256,66.8658304 29.4830762,70.6781427 20.8707279,76.2993113 C20.2538162,76.7921054 15.291914,80.1324403 11.0803106,81.7937593 C9.14637624,82.5566236 4.61200635,82.636569 2.48051525,80.0008371 C-0.0298238817,76.8966341 0.00287563443,70.7826789 0.00287563443,68.6405246 Z M9.09089938,7.94000244 C8.16073023,7.94000244 7.23056108,8.19523768 6.9205047,8.19523768 C6.30039193,8.45047293 4.12999725,9.4714139 4.12999725,11.7682923 L4.12999725,72.2561798 C4.12999725,74.553297 6.30039193,75.5739992 6.9205047,75.8292344 C7.54061746,76.0844697 9.71101214,76.8501754 11.8811168,75.318764 L44.7456431,52.8590176 C45.9858686,51.8380766 48.1559733,51.8380766 49.7062552,52.3485471 C51.2565371,52.8590176 52.4967626,54.3904291 52.4967626,55.9216018 L52.4967626,71.4902353 C52.4967626,73.5321172 54.6671573,75.3185252 57.1473183,75.3185252 L72.0294446,75.3185252 C74.5098957,75.3185252 76.6800003,73.5318785 76.6800003,71.4902353 L76.6800003,12.5339981 C76.6800003,10.4921161 74.5096056,8.70570817 72.0294446,8.70570817 L57.1473183,8.70570817 C54.6668673,8.70570817 52.4967626,10.4923549 52.4967626,12.5339981 L52.4967626,28.1026316 C52.4967626,29.6340431 51.5665935,30.9099805 49.7062552,31.6756862 C48.1559733,32.1861567 46.295925,32.1861567 44.7456431,31.1652158 L12.1914632,8.70570817 C11.2612941,8.19523768 10.0210685,7.94000244 9.09089938,7.94000244 Z" id="Shape"></path>
                    </g>
                </g>
            </g>
        </g>
    </g>
</svg>