<?xml version="1.0" encoding="iso-8859-1"?>
<!-- Generator: Adobe Illustrator 19.1.0, SVG Export Plug-In . SVG Version: 6.00 Build 0)  -->
<svg version="1.1" id="Capa_1" xmlns="http://www.w3.org/2000/svg" xmlns:xlink="http://www.w3.org/1999/xlink" x="0px" y="0px"
	 viewBox="0 0 350.102 350.102" style="enable-background:new 0 0 350.102 350.102;" xml:space="preserve">
<g>
	<g>
		<path style="fill:#231F20;" d="M66.018,350.102c-7.483,0-13.896-1.069-20.31-4.276c-17.103-8.552-27.793-24.586-27.793-43.827
			V48.658c0-19.241,10.689-35.275,27.793-43.827s36.344-5.345,51.31,6.414l87.654,71.62v-31c0-26.724,21.379-48.103,48.103-48.103
			h51.31c26.724,0,48.103,21.379,48.103,48.103v246.927c0,26.724-21.379,48.103-48.103,48.103h-51.31
			c-26.724,0-48.103-21.379-48.103-48.103v-32.069l-87.654,71.62C88.466,346.895,77.777,350.102,66.018,350.102z M66.018,32.624
			c-3.207,0-6.414,1.069-7.483,1.069c-2.138,1.069-9.621,5.345-9.621,14.965v253.341c0,9.621,7.483,13.896,9.621,14.965
			c2.138,1.069,9.621,4.276,17.103-2.138l113.309-94.068c4.276-4.276,11.758-4.276,17.103-2.138
			c5.345,2.138,9.621,8.552,9.621,14.965v65.206c0,8.552,7.483,16.034,16.034,16.034h51.31c8.552,0,16.034-7.483,16.034-16.034
			V51.865c0-8.552-7.483-16.034-16.034-16.034h-51.31c-8.552,0-16.034,7.483-16.034,16.034v65.206
			c0,6.414-3.207,11.758-9.621,14.965c-5.345,2.138-11.758,2.138-17.103-2.138L76.708,35.831
			C73.501,33.693,69.225,32.624,66.018,32.624z"/>
	</g>
</g>
<g>
</g>
<g>
</g>
<g>
</g>
<g>
</g>
<g>
</g>
<g>
</g>
<g>
</g>
<g>
</g>
<g>
</g>
<g>
</g>
<g>
</g>
<g>
</g>
<g>
</g>
<g>
</g>
<g>
</g>
</svg>
