<?xml version="1.0" encoding="UTF-8"?>
<svg width="277px" height="62px" viewBox="0 0 277 62" version="1.1" xmlns="http://www.w3.org/2000/svg" xmlns:xlink="http://www.w3.org/1999/xlink">
    <!-- Generator: Sketch 50.2 (55047) - http://www.bohemiancoding.com/sketch -->
    <title>slogan</title>
    <desc>Created with Sketch.</desc>
    <defs></defs>
    <g id="Page-1" stroke="none" stroke-width="1" fill="none" fill-rule="evenodd">
        <g id="Artboard" transform="translate(-306.000000, -63.000000)" fill="#FFFFFF">
            <g id="slogan" transform="translate(294.000000, 60.000000)">
                <g id="Group" transform="translate(72.000000, 0.000000)">
                    <text id="TALIAM" font-family="Dosis-Bold, Dosis" font-size="30" font-weight="bold" line-spacing="43" letter-spacing="2">
                        <tspan x="53" y="31">TALIAM</tspan>
                    </text>
                    <g id="skip-track-button" transform="translate(18.500000, 22.000000) rotate(-90.000000) translate(-18.500000, -22.000000) translate(-0.500000, 3.500000)" fill-rule="nonzero">
                        <path d="M4.9217841e-06,30.8174713 L4.9217841e-06,6.57796323 C4.9217841e-06,4.73699641 0.206302555,0.978194541 2.27338684,0.159944542 C4.34047113,-0.658305457 7.75120844,1.87321709 9.55990719,2.99831084 C13.5885927,5.60899528 16.6245462,7.54518621 18.6677675,8.80688364 C19.7736556,9.48977399 20.952067,9.99498545 21.3835735,9.43712165 C21.5866964,9.17451864 21.5866964,8.32374708 21.3835735,6.88480698 C21.3835735,5.67613119 21.05839,3.54389868 21.8756289,2.62301796 C22.8117583,1.56816909 23.7471054,1.88622145 25.2812926,1.88622145 L31.195929,1.88622145 C32.6674015,1.88622145 33.4788159,1.88622145 36.1953237,1.88622145 C36.5591774,1.88622145 38.1930706,3.11723083 37.9811076,5.88850192 C37.9811076,5.88850192 37.9811076,14.0958771 37.9811076,30.5106275 C37.9811076,31.5746193 38.1164733,34.3517054 37.437984,35.1130924 C37.080468,35.5142898 34.4824828,35.5378461 32.0691999,35.57777 C29.9025863,35.6136131 27.9234416,35.6919098 27.2008191,35.57777 L25.2812926,35.57777 C23.6213819,35.57777 23.4770636,35.9854621 22.4214812,35.1130924 C21.4232106,34.2880872 21.3835735,33.1466922 21.3835735,31.9038995 C21.3772706,30.7970063 21.3772706,30.1482301 21.3835735,29.9575708 C21.4082543,29.2109865 21.6789532,27.2164365 21.3835735,27.05428 C20.7707804,26.7178712 18.4961571,28.5142053 17.5874087,29.102052 C16.1811977,30.0116948 13.5053639,31.7426249 9.55990719,34.2948424 C9.2772899,34.5185891 7.00416188,36.0352241 5.07475792,36.7895241 C4.18879114,37.1358926 2.11152261,37.1721907 1.1350519,35.9754714 C-0.014975258,34.5660489 4.9217841e-06,31.7900882 4.9217841e-06,30.8174713 Z M4.31587231,2.69888663 C3.87413859,2.69888663 3.43240487,2.8190175 3.2851603,2.8190175 C2.99067115,2.93914837 1.95995914,3.41967187 1.95995914,4.50073735 L1.95995914,32.9704058 C1.95995914,34.0515837 2.99067115,34.5319948 3.2851603,34.6521256 C3.57964945,34.7722565 4.61036146,35.1326491 5.64093573,34.4118639 L5.78831804,34.4117515 C13.1858839,29.9881028 17.2182408,27.5909218 17.8853885,27.2202086 C18.1400815,27.0786837 18.3822916,26.9475403 18.6126054,26.8261939 C22.2883412,24.8895447 22.9339423,25.4483252 22.9339423,26.1265048 L22.9339423,33.6730384 C22.9339423,34.6340854 25.9598603,34.4117515 27.1376792,34.4117515 L34.2051432,34.4117515 C35.3830998,34.4117515 36.4136741,33.5708354 36.4136741,32.6099008 L36.4136741,4.86112997 C36.4136741,3.90008298 35.3829621,3.05927925 34.2051432,3.05927925 L27.1376792,3.05927925 C25.9597226,3.05927925 22.9339423,2.91091436 22.9339423,3.87184897 L22.9339423,10.0647546 C23.0216813,10.7267628 23.3937661,12.8368193 18.6126054,10.4740605 C13.8314448,8.11130161 10.9849528,5.99371902 10.4138905,5.62099376 L5.78831804,3.05927925 C5.34658432,2.8190175 4.75760603,2.69888663 4.31587231,2.69888663 Z" id="Shape"></path>
                    </g>
                </g>
                <text id="descubre-de-una-mane" font-family="Poppins-Regular, Poppins" font-size="15" font-weight="normal" letter-spacing="0.46875">
                    <tspan x="11.435" y="64">descubre de una manera diferente</tspan>
                </text>
            </g>
        </g>
    </g>
</svg>